<svg transform="scale(1.2)" width="26" height="27" viewBox="0 0 26 27" fill="none" xmlns="http://www.w3.org/2000/svg">
<path d="M23.3286 7.30287L18.7786 9.86676V6.32787C18.7786 5.94478 18.6265 5.57738 18.3556 5.30649C18.0847 5.0356 17.7173 4.88342 17.3342 4.88342H4.3342C3.56802 4.88342 2.83322 5.18779 2.29145 5.72956C1.74968 6.27133 1.44531 7.00613 1.44531 7.77231V19.3279C1.44531 20.094 1.74968 20.8288 2.29145 21.3706C2.83322 21.9124 3.56802 22.2168 4.3342 22.2168H17.3342C17.7173 22.2168 18.0847 22.0646 18.3556 21.7937C18.6265 21.5228 18.7786 21.1554 18.7786 20.7723V17.219L23.3286 19.7829C23.4454 19.8591 23.5801 19.9033 23.7194 19.911C23.8586 19.9187 23.9974 19.8896 24.1218 19.8267C24.2462 19.7638 24.3519 19.6692 24.4282 19.5524C24.5045 19.4357 24.5487 19.301 24.5564 19.1618V7.91676C24.5475 7.77815 24.5024 7.6443 24.4257 7.52855C24.3489 7.4128 24.2431 7.3192 24.1189 7.25709C23.9947 7.19497 23.8563 7.16651 23.7177 7.17454C23.579 7.18258 23.4449 7.22682 23.3286 7.30287Z" fill="#4F4F4F"/>
</svg>
