<svg width="26" height="26" viewBox="0 0 26 26" fill="none" xmlns="http://www.w3.org/2000/svg">
<g clip-path="url(#clip0)">
<path d="M2.41144 5.76875C1.9442 6.26609 1.68611 6.91321 1.68751 7.58387V18.4161C1.68751 19.9111 2.94638 21.125 4.50057 21.125H15.7494C16.4751 21.125 17.1349 20.8618 17.6344 20.4279L2.41313 5.77038L2.41144 5.76875ZM24.5363 20.1793C24.7691 20.0744 24.9659 19.9077 25.1034 19.6986C25.241 19.4896 25.3135 19.247 25.3125 18.9995V7.0005C25.3125 5.97675 24.1431 5.35925 23.2318 5.8695L18.5625 8.47925V7.58387C18.5625 6.08887 17.3036 4.875 15.7494 4.875H8.64169L24.5363 20.1793Z" fill="white"/>
<path fill-rule="evenodd" clip-rule="evenodd" d="M23.0273 23.3253L2.77734 3.8253L3.97209 2.6748L24.2221 22.1748L23.0273 23.3237V23.3253Z" fill="white"/>
</g>
<defs>
<clipPath id="clip0">
<rect width="26" height="26" fill="white"/>
</clipPath>
</defs>
</svg>
