<svg width="18" height="12" viewBox="0 0 18 12" fill="none" xmlns="http://www.w3.org/2000/svg">
<path d="M3.31034 6.375H0.827586C0.370345 6.375 0 6.73238 0 7.17361V11.2014C0 11.6426 0.370345 12 0.827586 12H3.31034C3.76759 12 4.13793 11.6426 4.13793 11.2014V7.17361C4.13793 6.73238 3.76759 6.375 3.31034 6.375ZM9.93103 3.25H7.44828C6.99103 3.25 6.62069 3.60738 6.62069 4.04861V11.2014C6.62069 11.6426 6.99103 12 7.44828 12H9.93103C10.3883 12 10.7586 11.6426 10.7586 11.2014V4.04861C10.7586 3.60738 10.3883 3.25 9.93103 3.25ZM16.5517 0.125H14.069C13.6117 0.125 13.2414 0.482378 13.2414 0.923611V11.2014C13.2414 11.6426 13.6117 12 14.069 12H16.5517C17.009 12 17.3793 11.6426 17.3793 11.2014V0.923611C17.3793 0.482378 17.009 0.125 16.5517 0.125Z" fill="white"/>
</svg>
