<svg transform="scale(0.6)" version="1.1" xmlns="http://www.w3.org/2000/svg" width="14" height="14" viewBox="0 0 14 14" fill="none">
<path d="M0.574219 14H3.5C3.88281 14 4.07422 13.8086 4.07422 13.4258C4.07422 13.0247 3.88281 12.8242 3.5 12.8242H1.99609L5.66016 9.16016C5.89714 8.88672 5.89714 8.61328 5.66016 8.33984C5.38672 8.10286 5.11328 8.10286 4.83984 8.33984L1.17578 12.0039V10.5C1.17578 10.1172 0.97526 9.92578 0.574219 9.92578C0.191406 9.92578 0 10.1172 0 10.5V13.4258C0 13.5898 0.0546875 13.7266 0.164062 13.8359C0.273438 13.9453 0.410156 14 0.574219 14ZM13.4258 9.92578C13.0247 9.92578 12.8242 10.1172 12.8242 10.5V12.0039L9.16016 8.33984C8.88672 8.10286 8.61328 8.10286 8.33984 8.33984C8.10286 8.61328 8.10286 8.88672 8.33984 9.16016L12.0039 12.8242H10.5C10.1172 12.8242 9.92578 13.0247 9.92578 13.4258C9.92578 13.8086 10.1172 14 10.5 14H13.4258C13.5898 14 13.7266 13.9453 13.8359 13.8359C13.9453 13.7266 14 13.5898 14 13.4258V10.5C14 10.1172 13.8086 9.92578 13.4258 9.92578ZM13.4258 0H10.5C10.1172 0 9.92578 0.191406 9.92578 0.574219C9.92578 0.97526 10.1172 1.17578 10.5 1.17578H12.0039L8.33984 4.83984C8.10286 5.11328 8.10286 5.38672 8.33984 5.66016C8.44922 5.76953 8.58594 5.82422 8.75 5.82422C8.91406 5.82422 9.05078 5.76953 9.16016 5.66016L12.8242 1.99609V3.5C12.8242 3.88281 13.0247 4.07422 13.4258 4.07422C13.8086 4.07422 14 3.88281 14 3.5V0.574219C14 0.410156 13.9453 0.273438 13.8359 0.164062C13.7266 0.0546875 13.5898 0 13.4258 0ZM0.574219 4.07422C0.97526 4.07422 1.17578 3.88281 1.17578 3.5V1.99609L4.83984 5.66016C4.94922 5.76953 5.08594 5.82422 5.25 5.82422C5.41406 5.82422 5.55078 5.76953 5.66016 5.66016C5.89714 5.38672 5.89714 5.11328 5.66016 4.83984L1.99609 1.17578H3.5C3.88281 1.17578 4.07422 0.97526 4.07422 0.574219C4.07422 0.191406 3.88281 0 3.5 0H0.574219C0.410156 0 0.273438 0.0546875 0.164062 0.164062C0.0546875 0.273438 0 0.410156 0 0.574219V3.5C0 3.88281 0.191406 4.07422 0.574219 4.07422Z" fill="#9141B8"/>
</svg>
