<svg width="22" height="22" viewBox="0 0 22 22" fill="none" xmlns="http://www.w3.org/2000/svg">
<path d="M4.39996 8.9164C4.64284 8.9164 4.83996 8.71928 4.83996 8.4764V4.84002H8.47634C8.71922 4.84002 8.91634 4.6429 8.91634 4.40002C8.91634 4.15714 8.71922 3.96002 8.47634 3.96002H4.39996C4.15708 3.96002 3.95996 4.15714 3.95996 4.40002V8.4764C3.95996 8.7195 4.15708 8.9164 4.39996 8.9164Z" fill="#5B31D4"/>
<path d="M4.39996 18.0398H8.47634C8.71922 18.0398 8.91634 17.8427 8.91634 17.5998C8.91634 17.3569 8.71922 17.1598 8.47634 17.1598H4.83996V13.5234C4.83996 13.2806 4.64284 13.0834 4.39996 13.0834C4.15708 13.0834 3.95996 13.2806 3.95996 13.5234V17.5998C3.95996 17.8427 4.15708 18.0398 4.39996 18.0398Z" fill="#5B31D4"/>
<path d="M13.5236 18.0398H17.6C17.8429 18.0398 18.04 17.8427 18.04 17.5998V13.5234C18.04 13.2806 17.8429 13.0834 17.6 13.0834C17.3571 13.0834 17.16 13.2806 17.16 13.5234V17.1598H13.5236C13.2807 17.1598 13.0836 17.3569 13.0836 17.5998C13.0836 17.8427 13.2805 18.0398 13.5236 18.0398Z" fill="#5B31D4"/>
<path d="M13.5236 4.84002H17.16V8.4764C17.16 8.71928 17.3571 8.9164 17.6 8.9164C17.8429 8.9164 18.04 8.71928 18.04 8.4764V4.40002C18.04 4.15714 17.8429 3.96002 17.6 3.96002H13.5236C13.2807 3.96002 13.0836 4.15714 13.0836 4.40002C13.0836 4.6429 13.2805 4.84002 13.5236 4.84002Z" fill="#5B31D4"/>
</svg>
