<svg transform="scale(1.2)" width="28" height="13" viewBox="0 0 28 13" fill="none" xmlns="http://www.w3.org/2000/svg">
<path d="M8.77005 10.2179C8.757 8.07722 7.68013 7.01339 8.74396 5.93651C9.80779 4.85964 11.9485 4.84659 14.0892 4.83355C16.2299 4.8205 18.3706 4.80746 19.4475 5.87129C20.5244 6.93512 19.4605 8.012 19.4736 10.1527C19.4866 12.2934 25.9087 12.2543 26.9726 11.1774C28.0364 10.1005 26.9334 4.75528 26.9334 4.75528C24.7797 2.62762 18.2268 0.526766 14.0631 0.552136C9.89944 0.577507 3.37263 2.75806 1.24497 4.91181C1.24497 4.91181 0.207225 10.2701 1.2841 11.3339C2.36097 12.3978 8.78309 12.3586 8.77005 10.2179Z" fill="white"/>
</svg>
