<svg width="35" height="35" viewBox="0 0 35 35" fill="none" xmlns="http://www.w3.org/2000/svg">
<path d="M17.5003 32.0832C9.44595 32.0832 2.91699 25.5542 2.91699 17.4998C2.91699 9.44546 9.44595 2.9165 17.5003 2.9165C25.5547 2.9165 32.0837 9.44546 32.0837 17.4998C32.0837 25.5542 25.5547 32.0832 17.5003 32.0832ZM17.5003 29.1665C20.5945 29.1665 23.562 27.9373 25.7499 25.7494C27.9378 23.5615 29.167 20.594 29.167 17.4998C29.167 14.4056 27.9378 11.4382 25.7499 9.25026C23.562 7.06233 20.5945 5.83317 17.5003 5.83317C14.4061 5.83317 11.4387 7.06233 9.25075 9.25026C7.06282 11.4382 5.83366 14.4056 5.83366 17.4998C5.83366 20.594 7.06282 23.5615 9.25075 25.7494C11.4387 27.9373 14.4061 29.1665 17.5003 29.1665ZM16.042 10.2082H18.9587V13.1248H16.042V10.2082ZM16.042 16.0415H18.9587V24.7915H16.042V16.0415Z" fill="#9141B8"/>
</svg>
