<svg width="47" height="18" viewBox="0 0 47 18" fill="none" xmlns="http://www.w3.org/2000/svg">
<path d="M3.55155 0H1.0688C0.611556 0 0.241211 0.538099 0.241211 1.20246V16.6775C0.241211 17.3419 0.611556 17.88 1.0688 17.88H3.55155C4.0088 17.88 4.37914 17.3419 4.37914 16.6775V1.20246C4.37914 0.538099 4.0088 0 3.55155 0Z" fill="#63CC81"/>
<path d="M21.3103 0H18.8276C18.3703 0 18 0.538099 18 1.20246V16.6775C18 17.3419 18.3703 17.88 18.8276 17.88H21.3103C21.7676 17.88 22.1379 17.3419 22.1379 16.6775V1.20246C22.1379 0.538099 21.7676 0 21.3103 0Z" fill="#E1E3EA"/>
<path d="M9.31034 0H6.82759C6.37034 0 6 0.538099 6 1.20246V16.6775C6 17.3419 6.37034 17.88 6.82759 17.88H9.31034C9.76758 17.88 10.1379 17.3419 10.1379 16.6775V1.20246C10.1379 0.538099 9.76758 0 9.31034 0Z" fill="#63CC81"/>
<path d="M27.0691 0H24.5864C24.1291 0 23.7588 0.538099 23.7588 1.20246V16.6775C23.7588 17.3419 24.1291 17.88 24.5864 17.88H27.0691C27.5264 17.88 27.8967 17.3419 27.8967 16.6775V1.20246C27.8967 0.538099 27.5264 0 27.0691 0Z" fill="#E1E3EA"/>
<path d="M39.3103 0H36.8276C36.3703 0 36 0.538099 36 1.20246V16.6775C36 17.3419 36.3703 17.88 36.8276 17.88H39.3103C39.7676 17.88 40.1379 17.3419 40.1379 16.6775V1.20246C40.1379 0.538099 39.7676 0 39.3103 0Z" fill="#E1E3EA"/>
<path d="M15.3103 0H12.8276C12.3703 0 12 0.538099 12 1.20246V16.6775C12 17.3419 12.3703 17.88 12.8276 17.88H15.3103C15.7676 17.88 16.1379 17.3419 16.1379 16.6775V1.20246C16.1379 0.538099 15.7676 0 15.3103 0Z" fill="#E1E3EA"/>
<path d="M14.4 0H12.6C12.2685 0 12 0.54171 12 1.21053V16.7895C12 17.4583 12.2685 18 12.6 18H14.4C14.7315 18 15 17.4583 15 16.7895V1.21053C15 0.54171 14.7315 0 14.4 0Z" fill="#63CC81"/>
<path d="M33.0691 0H30.5864C30.1291 0 29.7588 0.538099 29.7588 1.20246V16.6775C29.7588 17.3419 30.1291 17.88 30.5864 17.88H33.0691C33.5264 17.88 33.8967 17.3419 33.8967 16.6775V1.20246C33.8967 0.538099 33.5264 0 33.0691 0Z" fill="#E1E3EA"/>
<path d="M45.3103 0H42.8276C42.3703 0 42 0.538099 42 1.20246V16.6775C42 17.3419 42.3703 17.88 42.8276 17.88H45.3103C45.7676 17.88 46.1379 17.3419 46.1379 16.6775V1.20246C46.1379 0.538099 45.7676 0 45.3103 0Z" fill="#E1E3EA"/>
</svg>
