<svg transform="scale(1.2)" width="28" height="28" viewBox="0 0 28 28" fill="none" xmlns="http://www.w3.org/2000/svg">
<path d="M23.707 22.293L20.307 18.893C21.4029 17.4974 21.999 15.7745 22 14H20C19.999 15.2443 19.6076 16.4569 18.881 17.467L17.432 16.017C17.8005 15.4085 17.9969 14.7114 18 14V8C18 5.783 16.215 3.979 14.021 3.979C13.951 3.979 13.881 3.988 13.812 4.004C12.7852 4.05378 11.8169 4.49636 11.1073 5.24016C10.3978 5.98395 10.0013 6.97205 9.99997 8V8.586L5.70697 4.293L4.29297 5.707L22.293 23.707L23.707 22.293ZM7.99997 14H5.99997C5.99997 18.072 9.05997 21.436 13 21.931V24H15V21.931C15.7739 21.8323 16.529 21.62 17.241 21.301L15.692 19.753C15.1427 19.9159 14.5729 19.9991 14 20C10.691 20 7.99997 17.309 7.99997 14Z" fill="white"/>
<path d="M10.0068 14.067C10.0248 15.1026 10.4442 16.0908 11.1766 16.8232C11.909 17.5556 12.8972 17.975 13.9328 17.993L10.0068 14.067Z" fill="white"/>
</svg>
