<svg width="10" height="10" viewBox="0 0 10 10" fill="none" xmlns="http://www.w3.org/2000/svg">
<path d="M4.99967 6.66679C5.91884 6.66679 6.66634 5.91929 6.66634 5.00012V2.50012C6.66634 1.57637 5.92259 0.824707 5.00842 0.824707C4.9791 0.824883 4.94988 0.828378 4.92134 0.835124C4.49353 0.855865 4.09006 1.04027 3.79442 1.35019C3.49877 1.6601 3.33357 2.07181 3.33301 2.50012V5.00012C3.33301 5.91929 4.08051 6.66679 4.99967 6.66679Z" fill="white"/>
<path d="M4.58366 8.30458V9.16667H5.41699V8.30458C7.05824 8.09833 8.33366 6.69708 8.33366 5H7.50033C7.50033 6.37875 6.37908 7.5 5.00033 7.5C3.62158 7.5 2.50033 6.37875 2.50033 5H1.66699C1.66699 6.69667 2.94241 8.09833 4.58366 8.30458Z" fill="white"/>
</svg>
