<svg width="11" height="14" viewBox="0 0 11 14" fill="none" xmlns="http://www.w3.org/2000/svg">
<g clip-path="url(#clip0)">
<path fill-rule="evenodd" clip-rule="evenodd" d="M3.34727 0.743675C3.82803 0.266904 4.47897 0 5.1566 0C5.83423 0 6.48516 0.266904 6.96592 0.743675C7.44687 1.22062 7.71803 1.86864 7.71803 2.54545V6.36364C7.71803 7.04045 7.44687 7.68847 6.96592 8.16541C6.48516 8.64219 5.83423 8.90909 5.1566 8.90909C4.47897 8.90909 3.82803 8.64219 3.34727 8.16541C2.86633 7.68847 2.59517 7.04045 2.59517 6.36364V2.54545C2.59517 1.86864 2.86633 1.22062 3.34727 0.743675ZM5.1566 1.27273C4.81311 1.27273 4.48475 1.40809 4.24347 1.64737C4.00237 1.88647 3.8679 2.20963 3.8679 2.54545V6.36364C3.8679 6.69946 4.00237 7.02262 4.24347 7.26172C4.48475 7.501 4.81311 7.63636 5.1566 7.63636C5.50009 7.63636 5.82845 7.501 6.06973 7.26172C6.31083 7.02262 6.4453 6.69946 6.4453 6.36364V2.54545C6.4453 2.20963 6.31083 1.88647 6.06973 1.64737C5.82845 1.40809 5.50009 1.27273 5.1566 1.27273Z" fill="#5B31D4"/>
<path fill-rule="evenodd" clip-rule="evenodd" d="M0.66122 5.72729C1.01267 5.72729 1.29758 6.0122 1.29758 6.36366C1.29758 7.37458 1.70248 8.34519 2.42494 9.06165C3.14758 9.77829 4.12881 10.1818 5.15304 10.1818C6.17728 10.1818 7.1585 9.77829 7.88114 9.06165C8.6036 8.34519 9.0085 7.37458 9.0085 6.36366C9.0085 6.0122 9.29341 5.72729 9.64486 5.72729C9.99632 5.72729 10.2812 6.0122 10.2812 6.36366C10.2812 7.71557 9.73964 9.01103 8.77734 9.96535C7.81522 10.9195 6.51142 11.4546 5.15304 11.4546C3.79467 11.4546 2.49087 10.9195 1.52875 9.96535C0.566446 9.01103 0.0248566 7.71557 0.0248566 6.36366C0.0248566 6.0122 0.309766 5.72729 0.66122 5.72729Z" fill="#5B31D4"/>
<path fill-rule="evenodd" clip-rule="evenodd" d="M5.15554 10.1818C5.50699 10.1818 5.7919 10.6092 5.7919 11.1364V13.0455C5.7919 13.5726 5.50699 14 5.15554 14C4.80409 14 4.51918 13.5726 4.51918 13.0455V11.1364C4.51918 10.6092 4.80409 10.1818 5.15554 10.1818Z" fill="#5B31D4"/>
<path fill-rule="evenodd" clip-rule="evenodd" d="M1.95135 13.3637C1.95135 13.0122 2.23626 12.7273 2.58771 12.7273H7.72123C8.07268 12.7273 8.35759 13.0122 8.35759 13.3637C8.35759 13.7151 8.07268 14 7.72123 14H2.58771C2.23626 14 1.95135 13.7151 1.95135 13.3637Z" fill="#5B31D4"/>
</g>
<defs>
<clipPath id="clip0">
<rect width="10.1818" height="14" fill="white"/>
</clipPath>
</defs>
</svg>
