<svg transform="scale(1.2)" width="28" height="28" viewBox="0 0 28 28" fill="none" xmlns="http://www.w3.org/2000/svg">
<path d="M13.9999 18.6667C16.5736 18.6667 18.6666 16.5737 18.6666 14V7C18.6666 4.4135 16.5841 2.30884 14.0244 2.30884C13.9423 2.30933 13.8605 2.31912 13.7806 2.338C12.5827 2.39608 11.453 2.91242 10.6252 3.78018C9.79739 4.64794 9.33484 5.80072 9.33325 7V14C9.33325 16.5737 11.4263 18.6667 13.9999 18.6667Z" fill="#4F4F4F"/>
<path d="M12.8334 23.2528V25.6667H15.1667V23.2528C19.7622 22.6753 23.3334 18.7518 23.3334 14H21.0001C21.0001 17.8605 17.8606 21 14.0001 21C10.1396 21 7.00008 17.8605 7.00008 14H4.66675C4.66675 18.7507 8.23791 22.6753 12.8334 23.2528Z" fill="#4F4F4F"/>
</svg>
