<svg width="33" height="33" viewBox="0 0 33 33" fill="none" xmlns="http://www.w3.org/2000/svg">
<path d="M12.066 5.9884C11.8159 5.73831 11.4711 5.58441 11.091 5.58441C10.3307 5.58441 9.7113 6.20386 9.7113 6.96412L9.7113 19.6609C9.7113 19.8671 9.59511 20.0556 9.41043 20.148C9.22575 20.2403 9.00567 20.2203 8.841 20.0972L4.42638 16.786C3.64919 16.2027 2.54419 16.2812 1.85702 16.9684C1.64464 17.1808 1.64464 17.5255 1.85702 17.7379L11.8059 27.6867C12.7308 28.6117 13.9605 29.1211 15.2686 29.1211H17.9896C19.5978 29.1211 21.1114 28.4939 22.2488 27.3566C23.3861 26.2193 24.0132 24.7057 24.0132 23.0974L24.0124 9.27185C24.0124 8.51159 23.393 7.89214 22.6327 7.89214C21.8725 7.89214 21.253 8.51159 21.253 9.27185L21.253 16.5821C21.253 16.7329 21.1915 16.8683 21.093 16.9668C20.9945 17.0653 20.8583 17.1261 20.7082 17.1269C20.4081 17.1269 20.1642 16.883 20.1642 16.5829L20.1642 6.96412C20.1642 6.22694 19.5224 5.58518 18.7845 5.58441C18.0242 5.58441 17.4048 6.20386 17.4048 6.96412L17.4048 16.5829C17.4048 16.7337 17.3432 16.8691 17.2447 16.9676C17.1462 17.0661 17.01 17.1269 16.8599 17.1277C16.5598 17.1277 16.3159 16.8837 16.3159 16.5836L16.3159 5.04114C16.3159 4.28088 15.6965 3.66143 14.9362 3.66143C14.1759 3.66143 13.5565 4.28088 13.5565 5.04114L13.5565 16.5836C13.5565 16.7345 13.4949 16.8699 13.3964 16.9684C13.2979 17.0669 13.1617 17.1277 13.0117 17.1284C12.7116 17.1284 12.4676 16.8845 12.4676 16.5844L12.4676 6.96566C12.47 6.58322 12.3153 6.23772 12.066 5.9884Z" fill="#4F4F4F"/>
</svg>
