<svg width="23" height="26" viewBox="0 0 23 26" fill="none" xmlns="http://www.w3.org/2000/svg">
<path d="M10.9537 2.59118C10.7036 2.34109 10.3588 2.18719 9.97871 2.18719C9.21844 2.18719 8.599 2.80664 8.599 3.56691L8.599 16.2636C8.599 16.4699 8.4828 16.6584 8.29812 16.7507C8.11344 16.8431 7.89337 16.8231 7.72869 16.6999L3.31408 13.3888C2.53688 12.8055 1.43188 12.884 0.744719 13.5712C0.532338 13.7835 0.532338 14.1283 0.74472 14.3407L10.6936 24.2895C11.6185 25.2145 12.8482 25.7239 14.1563 25.7239H16.8773C18.4855 25.7239 19.9991 25.0967 21.1364 23.9594C22.2738 22.8221 22.9009 21.3085 22.9009 19.7002L22.9001 5.87463C22.9001 5.11437 22.2807 4.49492 21.5204 4.49492C20.7602 4.49492 20.1407 5.11437 20.1407 5.87463L20.1407 13.1849C20.1407 13.3357 20.0792 13.4711 19.9807 13.5696C19.8822 13.6681 19.746 13.7289 19.5959 13.7297C19.2958 13.7297 19.0519 13.4857 19.0519 13.1856L19.0519 3.56691C19.0519 2.82973 18.4101 2.18796 17.6722 2.18719C16.9119 2.18719 16.2924 2.80664 16.2924 3.56691L16.2924 13.1856C16.2924 13.3365 16.2309 13.4719 16.1324 13.5704C16.0339 13.6689 15.8977 13.7297 15.7476 13.7305C15.4475 13.7305 15.2036 13.4865 15.2036 13.1864L15.2036 1.64393C15.2036 0.883662 14.5842 0.264215 13.8239 0.264215C13.0636 0.264215 12.4442 0.883662 12.4442 1.64393L12.4442 13.1864C12.4442 13.3372 12.3826 13.4727 12.2841 13.5712C12.1856 13.6697 12.0494 13.7305 11.8994 13.7312C11.5993 13.7312 11.3553 13.4873 11.3553 13.1872L11.3553 3.56844C11.3577 3.186 11.203 2.8405 10.9537 2.59118Z" fill="#9141B8"/>
</svg>
