<svg transform="scale(0.9)" width="18" height="18" viewBox="0 0 18 18" fill="none" xmlns="http://www.w3.org/2000/svg">
<path d="M8.99998 13.0599C6.76147 13.0599 4.94031 11.2387 4.94031 9.00019C4.94031 6.76168 6.76147 4.94055 8.99998 4.94055C11.2384 4.94055 13.0596 6.76168 13.0596 9.00019C13.0596 11.2387 11.2384 13.0599 8.99998 13.0599ZM8.99998 5.99524C7.34303 5.99524 5.99499 7.34327 5.99499 9.00019C5.99499 10.6571 7.34303 12.0052 8.99998 12.0052C10.6569 12.0052 12.0049 10.6571 12.0049 9.00019C12.0049 7.34327 10.6569 5.99524 8.99998 5.99524Z" fill="#5B31D4"/>
<path d="M9.00007 17.6133C8.53509 17.6133 8.06593 17.5752 7.6056 17.5003C7.38995 17.4651 7.21828 17.3006 7.17402 17.0867L6.79233 15.2434L6.1464 14.976L4.57351 16.0092C4.39094 16.1291 4.15336 16.124 3.97607 15.9965C3.21472 15.449 2.55108 14.7853 2.00362 14.0241C1.87608 13.8468 1.87105 13.6092 1.99097 13.4267L3.02418 11.8537L2.75657 11.2078L0.913289 10.826C0.699328 10.7817 0.534832 10.61 0.499746 10.3944C0.424758 9.93389 0.386719 9.46477 0.386719 9C0.386719 8.53527 0.424758 8.06614 0.499746 7.60556C0.534832 7.38988 0.699363 7.21818 0.913324 7.17391L2.7566 6.79226L3.02411 6.14637L1.9909 4.57337C1.87098 4.39084 1.87601 4.15325 2.00355 3.97593C2.55111 3.21469 3.21472 2.55104 3.97596 2.00352C4.15329 1.87608 4.39087 1.87095 4.57341 1.9909L6.1463 3.02411L6.79222 2.75657L7.17391 0.913395C7.21821 0.699434 7.38988 0.534938 7.60549 0.499816C8.06593 0.424758 8.53509 0.386719 9.00007 0.386719C9.46508 0.386719 9.93424 0.424758 10.3946 0.499746C10.6103 0.534867 10.7819 0.699398 10.8262 0.913359L11.2078 2.75653L11.8537 3.02407L13.4266 1.99083C13.6092 1.87091 13.8468 1.87597 14.0241 2.00345C14.7853 2.55101 15.449 3.21465 15.9965 3.97586C16.124 4.15318 16.1291 4.39073 16.0091 4.57327C15.6647 5.09762 15.3203 5.62194 14.9758 6.14623L15.2434 6.79215L17.0866 7.17388C17.3006 7.21821 17.4651 7.38984 17.5002 7.60542C17.5752 8.06558 17.6132 8.53474 17.6132 8.99989C17.6132 9.46508 17.5752 9.93424 17.5002 10.3944C17.465 10.61 17.3005 10.7816 17.0866 10.8259L15.2434 11.2076L14.9759 11.8535L16.0091 13.4264C16.129 13.6089 16.124 13.8465 15.9965 14.0238C15.449 14.785 14.7854 15.4486 14.0241 15.9963C13.8467 16.1238 13.6092 16.1288 13.4266 16.0089L11.8537 14.9756L11.2078 15.2432L10.8261 17.0864C10.7817 17.3004 10.6101 17.4649 10.3945 17.5C9.93417 17.5752 9.46508 17.6133 9.00007 17.6133ZM8.13139 16.5087C8.70887 16.575 9.29123 16.575 9.86871 16.5087L10.2317 14.7562C10.2671 14.5852 10.3849 14.4427 10.5462 14.3759L11.7081 13.8947C11.8695 13.8279 12.0534 13.8453 12.1995 13.9411L13.6951 14.9236C14.1508 14.5621 14.5622 14.1507 14.9237 13.695L13.9412 12.1994C13.8453 12.0534 13.8279 11.8694 13.8948 11.7081L14.376 10.5462C14.4428 10.3848 14.5852 10.267 14.7563 10.2316L16.5088 9.86868C16.5419 9.58004 16.5587 9.28916 16.5587 9C16.5587 8.71087 16.5419 8.41999 16.5088 8.13132L14.7563 7.76841C14.5853 7.73297 14.4429 7.6152 14.376 7.45383L13.8948 6.29195C13.828 6.13058 13.8454 5.94657 13.9412 5.80057C14.2688 5.30205 14.5963 4.8035 14.9237 4.30495C14.5623 3.84929 14.1508 3.43786 13.6952 3.07638L12.1995 4.05886C12.0536 4.15473 11.8695 4.17213 11.7082 4.1053L10.5463 3.62405C10.3849 3.55721 10.2672 3.41483 10.2317 3.2438L9.86885 1.49129C9.29137 1.42495 8.70898 1.42495 8.13146 1.49129L7.76848 3.2438C7.73304 3.41483 7.61526 3.55721 7.4539 3.62405L6.29205 4.10527C6.13069 4.1721 5.94671 4.15473 5.80075 4.05882L4.30509 3.07642C3.8494 3.43786 3.43796 3.84929 3.07649 4.30495L4.05893 5.80064C4.15484 5.94661 4.17224 6.13062 4.10537 6.29198L3.62415 7.45383C3.55732 7.6152 3.4149 7.73297 3.2439 7.76841L1.49133 8.13129C1.45818 8.42017 1.44141 8.71109 1.44141 9C1.44141 9.28891 1.45818 9.57983 1.49129 9.86868L3.2439 10.2316C3.4149 10.2671 3.55732 10.3848 3.62415 10.5462L4.10537 11.708C4.1722 11.8694 4.1548 12.0533 4.05893 12.1993L3.07649 13.695C3.43793 14.1507 3.84936 14.5621 4.30509 14.9236L5.80071 13.9412C5.94668 13.8453 6.13069 13.8279 6.29202 13.8948L7.45393 14.376C7.6153 14.4428 7.73311 14.5852 7.76851 14.7562L8.13139 16.5087Z" fill="#5B31D4"/>
</svg>
