<svg transform="scale(0.8)" width="18" height="18" viewBox="0 0 18 18" fill="none" xmlns="http://www.w3.org/2000/svg">
<path d="M15.8748 9.47513V9.00013V8.51888L17.0748 7.46888C17.296 7.27391 17.4412 7.00702 17.4846 6.71538C17.5281 6.42374 17.467 6.12612 17.3123 5.87513L15.8373 3.37513C15.7277 3.1853 15.5701 3.02762 15.3803 2.91792C15.1905 2.80822 14.9752 2.75036 14.756 2.75013C14.6202 2.74909 14.4851 2.7702 14.356 2.81263L12.8373 3.32513C12.5751 3.15089 12.3016 2.99429 12.0185 2.85638L11.6998 1.28138C11.6426 0.993635 11.4861 0.735157 11.2576 0.551196C11.0291 0.367235 10.7431 0.269511 10.4498 0.275132H7.52479C7.23148 0.269511 6.94553 0.367235 6.71701 0.551196C6.48848 0.735157 6.33194 0.993635 6.27479 1.28138L5.95604 2.85638C5.671 2.99426 5.3954 3.15085 5.13104 3.32513L3.64354 2.78763C3.5131 2.75365 3.37802 2.74098 3.24354 2.75013C3.02434 2.75036 2.80905 2.80822 2.61927 2.91792C2.42949 3.02762 2.27189 3.1853 2.16229 3.37513L0.687292 5.87513C0.541408 6.12575 0.487199 6.41929 0.533947 6.70548C0.580696 6.99168 0.725494 7.25271 0.943542 7.44388L2.12479 8.52513V9.48138L0.943542 10.5314C0.719335 10.7239 0.570576 10.9896 0.523666 11.2813C0.476755 11.5731 0.534727 11.8721 0.687292 12.1251L2.16229 14.6251C2.27189 14.815 2.42949 14.9726 2.61927 15.0823C2.80905 15.192 3.02434 15.2499 3.24354 15.2501C3.37939 15.2512 3.51449 15.2301 3.64354 15.1876L5.16229 14.6751C5.4245 14.8494 5.69803 15.006 5.98104 15.1439L6.29979 16.7189C6.35694 17.0066 6.51348 17.2651 6.74201 17.4491C6.97053 17.633 7.25648 17.7308 7.54979 17.7251H10.4998C10.7931 17.7308 11.0791 17.633 11.3076 17.4491C11.5361 17.2651 11.6926 17.0066 11.7498 16.7189L12.0685 15.1439C12.3536 15.006 12.6292 14.8494 12.8935 14.6751L14.406 15.1876C14.5351 15.2301 14.6702 15.2512 14.806 15.2501C15.0252 15.2499 15.2405 15.192 15.4303 15.0823C15.6201 14.9726 15.7777 14.815 15.8873 14.6251L17.3123 12.1251C17.4582 11.8745 17.5124 11.581 17.4656 11.2948C17.4189 11.0086 17.2741 10.7476 17.056 10.5564L15.8748 9.47513ZM14.756 14.0001L12.6123 13.2751C12.1105 13.7002 11.5369 14.0325 10.9185 14.2564L10.4748 16.5001H7.52479L7.08104 14.2814C6.46756 14.0511 5.89711 13.7194 5.39354 13.3001L3.24354 14.0001L1.76854 11.5001L3.46854 10.0001C3.35298 9.35317 3.35298 8.69085 3.46854 8.04388L1.76854 6.50013L3.24354 4.00013L5.38729 4.72513C5.88913 4.30006 6.46267 3.96779 7.08104 3.74388L7.52479 1.50013H10.4748L10.9185 3.71888C11.532 3.94915 12.1025 4.28085 12.606 4.70013L14.756 4.00013L16.231 6.50013L14.531 8.00013C14.6466 8.64709 14.6466 9.30942 14.531 9.95638L16.231 11.5001L14.756 14.0001Z" fill="#9141B8"/>
<path d="M4 7.75C3.25832 7.75 2.5333 7.53007 1.91661 7.11801C1.29993 6.70596 0.819282 6.12029 0.535453 5.43506C0.251625 4.74984 0.177362 3.99584 0.322057 3.26841C0.466751 2.54098 0.823904 1.8728 1.34835 1.34835C1.8728 0.823904 2.54098 0.466751 3.26841 0.322057C3.99584 0.177362 4.74984 0.251625 5.43506 0.535453C6.12029 0.819282 6.70596 1.29993 7.11801 1.91661C7.53007 2.5333 7.75 3.25832 7.75 4C7.75501 4.49385 7.66144 4.98374 7.47476 5.44098C7.28808 5.89821 7.01205 6.3136 6.66283 6.66283C6.3136 7.01205 5.89821 7.28808 5.44098 7.47476C4.98374 7.66144 4.49385 7.75501 4 7.75ZM4 1.5C3.66959 1.4923 3.34105 1.55171 3.03426 1.67462C2.72747 1.79753 2.44879 1.9814 2.2151 2.2151C1.9814 2.44879 1.79753 2.72747 1.67462 3.03426C1.55171 3.34105 1.4923 3.66959 1.5 4C1.4923 4.33041 1.55171 4.65895 1.67462 4.96574C1.79753 5.27253 1.9814 5.55121 2.2151 5.78491C2.44879 6.0186 2.72747 6.20247 3.03426 6.32538C3.34105 6.44829 3.66959 6.5077 4 6.5C4.33041 6.5077 4.65895 6.44829 4.96574 6.32538C5.27253 6.20247 5.55121 6.0186 5.78491 5.78491C6.0186 5.55121 6.20247 5.27253 6.32538 4.96574C6.44829 4.65895 6.5077 4.33041 6.5 4C6.5077 3.66959 6.44829 3.34105 6.32538 3.03426C6.20247 2.72747 6.0186 2.44879 5.78491 2.2151C5.55121 1.9814 5.27253 1.79753 4.96574 1.67462C4.65895 1.55171 4.33041 1.4923 4 1.5Z" fill="#9141B8"   transform="translate(5px, 5px)" />
</svg>
