<svg width="46" height="18" viewBox="0 0 46 18" fill="none" xmlns="http://www.w3.org/2000/svg">
<path d="M3.31034 0H0.827586C0.370345 0 0 0.538099 0 1.20246V16.6775C0 17.3419 0.370345 17.88 0.827586 17.88H3.31034C3.76758 17.88 4.13793 17.3419 4.13793 16.6775V1.20246C4.13793 0.538099 3.76758 0 3.31034 0Z" fill="#63CC81"/>
<path d="M21.0691 0H18.5864C18.1291 0 17.7588 0.538099 17.7588 1.20246V16.6775C17.7588 17.3419 18.1291 17.88 18.5864 17.88H21.0691C21.5264 17.88 21.8967 17.3419 21.8967 16.6775V1.20246C21.8967 0.538099 21.5264 0 21.0691 0Z" fill="#E1E3EA"/>
<path d="M9.06913 0H6.58638C6.12913 0 5.75879 0.538099 5.75879 1.20246V16.6775C5.75879 17.3419 6.12913 17.88 6.58638 17.88H9.06913C9.52637 17.88 9.89672 17.3419 9.89672 16.6775V1.20246C9.89672 0.538099 9.52637 0 9.06913 0Z" fill="#63CC81"/>
<path d="M26.8279 0H24.3452C23.8879 0 23.5176 0.538099 23.5176 1.20246V16.6775C23.5176 17.3419 23.8879 17.88 24.3452 17.88H26.8279C27.2852 17.88 27.6555 17.3419 27.6555 16.6775V1.20246C27.6555 0.538099 27.2852 0 26.8279 0Z" fill="#E1E3EA"/>
<path d="M39.0691 0H36.5864C36.1291 0 35.7588 0.538099 35.7588 1.20246V16.6775C35.7588 17.3419 36.1291 17.88 36.5864 17.88H39.0691C39.5264 17.88 39.8967 17.3419 39.8967 16.6775V1.20246C39.8967 0.538099 39.5264 0 39.0691 0Z" fill="#E1E3EA"/>
<path d="M15.0691 0H12.5864C12.1291 0 11.7588 0.538099 11.7588 1.20246V16.6775C11.7588 17.3419 12.1291 17.88 12.5864 17.88H15.0691C15.5264 17.88 15.8967 17.3419 15.8967 16.6775V1.20246C15.8967 0.538099 15.5264 0 15.0691 0Z" fill="#E1E3EA"/>
<path d="M14.1588 0H12.3588C12.0273 0 11.7588 0.54171 11.7588 1.21053V16.7895C11.7588 17.4583 12.0273 18 12.3588 18H14.1588C14.4903 18 14.7588 17.4583 14.7588 16.7895V1.21053C14.7588 0.54171 14.4903 0 14.1588 0Z" fill="#63CC81"/>
<path d="M32.8279 0H30.3452C29.8879 0 29.5176 0.538099 29.5176 1.20246V16.6775C29.5176 17.3419 29.8879 17.88 30.3452 17.88H32.8279C33.2852 17.88 33.6555 17.3419 33.6555 16.6775V1.20246C33.6555 0.538099 33.2852 0 32.8279 0Z" fill="#E1E3EA"/>
<path d="M45.0691 0H42.5864C42.1291 0 41.7588 0.538099 41.7588 1.20246V16.6775C41.7588 17.3419 42.1291 17.88 42.5864 17.88H45.0691C45.5264 17.88 45.8967 17.3419 45.8967 16.6775V1.20246C45.8967 0.538099 45.5264 0 45.0691 0Z" fill="#E1E3EA"/>
</svg>
