<svg width="12" height="9" viewBox="0 0 12 9" fill="none" xmlns="http://www.w3.org/2000/svg">
<path fill-rule="evenodd" clip-rule="evenodd" d="M5.69392 0.0560177C5.88108 0.149901 6 0.346689 6 0.562504V8.4375C6 8.65331 5.88108 8.8501 5.69392 8.94398C5.50677 9.03787 5.28438 9.01229 5.12155 8.87816L2.53806 6.75H0.541745C0.242548 6.75 0 6.49816 0 6.1875V2.8125C0 2.50184 0.242548 2.25 0.541745 2.25H2.53806L5.12155 0.121843C5.28438 -0.0122905 5.50677 -0.0378659 5.69392 0.0560177ZM4.91651 1.72679L3.06357 3.25316C2.96779 3.33206 2.84912 3.375 2.72686 3.375H1.08349V5.625H2.72686C2.84912 5.625 2.96779 5.66794 3.06357 5.74684L4.91651 7.27321V1.72679Z" fill="#5B31D4"/>
<path fill-rule="evenodd" clip-rule="evenodd" d="M9.53517 0.16491C9.7408 -0.0537272 10.0755 -0.0551451 10.2828 0.161743C11.3818 1.31164 12 2.87202 12 4.5C12 6.12798 11.3818 7.68836 10.2828 8.83826C10.0755 9.05514 9.7408 9.05373 9.53517 8.83509C9.32954 8.61645 9.33089 8.26339 9.53817 8.0465C10.438 7.10501 10.9427 5.82924 10.9427 4.5C10.9427 3.17076 10.438 1.89499 9.53817 0.953499C9.33089 0.73661 9.32954 0.383547 9.53517 0.16491ZM7.65335 2.13331C7.85897 1.91467 8.19371 1.91326 8.40099 2.13014C9.00029 2.7572 9.33776 3.60854 9.33776 4.49721C9.33776 5.38589 9.00029 6.23723 8.40099 6.86428C8.19371 7.08117 7.85897 7.07975 7.65335 6.86111C7.44772 6.64248 7.44906 6.28941 7.65635 6.07252C8.05646 5.65388 8.28042 5.08715 8.28042 4.49721C8.28042 3.90727 8.05646 3.34054 7.65635 2.9219C7.44906 2.70501 7.44772 2.35195 7.65335 2.13331Z" fill="#5B31D4"/>
</svg>
