<svg width="42" height="42" viewBox="0 0 42 42" xmlns="http://www.w3.org/2000/svg">
<g clip-path="url(#clip0)">
<path d="M32.0597 3.99902H9.89979C5.07889 3.99902 2 6.3083 2 11.2155V24.4114C2 25.8135 2.32409 27.0506 2.89126 28.1227C4.7548 31.5454 8.40085 32.2464 8.96802 32.3289H10.5075V29.731H8.92751C8.27932 29.6485 6.45629 29.1537 5.24094 27.1743C4.63326 26.1846 4.51173 25.1537 4.51173 24.4114V11.2155C4.51173 7.7516 6.45629 6.59696 9.85927 6.59696H32.0597C35.4627 6.59696 37.4072 8.57634 37.4072 12.0403V24.4114C37.4072 27.8753 35.4627 29.8547 32.0597 29.8547H18.4478C18.1237 29.8547 17.7996 29.9784 17.5565 30.2258L9.81876 38.3495L11.4797 39.999L18.9744 32.4526H32.0597C36.8806 32.4526 39.9595 29.3186 39.9595 24.4114V12.0403C40 7.13304 36.8806 3.99902 32.0597 3.99902Z" />
<path d="M27.4007 20.0811H9.61609V22.6378H27.4007V20.0811Z" />
<path d="M30.9658 13.6475H9.61609V16.2042H30.9658V13.6475Z" />
</g>
<defs>
<clipPath id="clip0">
<rect width="38" height="36" fill="white" transform="translate(2 3.99902)"/>
</clipPath>
</defs>
</svg>
