<svg width="30" height="30" viewBox="0 0 30 30" xmlns="http://www.w3.org/2000/svg">
<g clip-path="url(#clip0)">
<path d="M25.5318 10.0099H20.9049L19.2489 6.70971H10.8553L9.19928 10.0099H4.57176V13.2233H6.0268C6.10744 13.2233 6.18264 13.2633 6.22808 13.3299L6.51128 13.7462C6.5708 13.8336 6.56728 13.9491 6.50232 14.0326L5.5836 15.216L3.79832 17.5155C3.75224 17.575 3.68152 17.6096 3.606 17.6096H3.03928C2.96408 17.6096 2.89304 17.575 2.84696 17.5155L1.06168 15.216L0.142962 14.0326C0.0780022 13.9491 0.0744823 13.8336 0.134002 13.7462L0.417203 13.3299C0.462643 13.2633 0.537842 13.2233 0.618482 13.2233H2.0732V9.85019C2.0732 8.56027 3.12248 7.51067 4.41272 7.51067H7.65752L9.31352 4.21051H20.791L22.447 7.51067H25.6911C26.981 7.51067 28.0306 8.55995 28.0306 9.85019V13.8979H25.5318V10.0099Z"/>
<path d="M4.57176 23.2902H25.5318V20.0768H23.973C23.8924 20.0768 23.8172 20.0371 23.7718 19.9705L23.4882 19.5542C23.4287 19.4672 23.4322 19.3513 23.4972 19.2678L24.9586 17.3853L26.2012 15.7846C26.2473 15.7251 26.318 15.6906 26.3935 15.6906H26.9602C27.0354 15.6906 27.1065 15.7251 27.1526 15.7846L28.3951 17.3856L29.8566 19.2681C29.9215 19.3517 29.925 19.4675 29.8655 19.5549L29.582 19.9705C29.5366 20.0371 29.4614 20.0771 29.3807 20.0771H28.03V23.4486C28.03 24.7392 26.9807 25.7891 25.6905 25.7891H4.41176C3.12184 25.7891 2.07224 24.7392 2.07224 23.4486V19.3689H4.57112V23.2902H4.57176Z"/>
<path d="M15.0514 9.06873C18.7842 9.06873 21.821 12.1055 21.821 15.838C21.821 19.5705 18.7842 22.6073 15.0514 22.6073C11.3193 22.6073 8.28313 19.5705 8.28313 15.838C8.28313 12.1055 11.3193 9.06873 15.0514 9.06873ZM15.0514 20.1087C17.4063 20.1087 19.3225 18.1929 19.3225 15.8383C19.3225 13.4834 17.4066 11.5676 15.0514 11.5676C12.6972 11.5676 10.7817 13.4834 10.7817 15.8383C10.7817 18.1929 12.6972 20.1087 15.0514 20.1087Z"/>
</g>
<defs>
<clipPath id="clip0">
<rect width="32" height="32" fill="white" transform="matrix(-1 0 0 1 31 -1)"/>
</clipPath>
</defs>
</svg>
